<svg xmlns="http://www.w3.org/2000/svg" viewBox="0 0 94 46" width="94" height="46" role="img" aria-label="クラスエンブレム II">
  <defs>
    <linearGradient id="m02-gold" x1="0" y1="0" x2="0" y2="1">
      <stop offset="0" stop-color="#fffbe0"/>
      <stop offset="0.5" stop-color="#ffe066"/>
      <stop offset="0.5" stop-color="#f8bb2e"/>
      <stop offset="1" stop-color="#dd9a24"/>
    </linearGradient>
    <linearGradient id="m02-cream" x1="0" y1="0" x2="0" y2="1">
      <stop offset="0" stop-color="#fffdf0"/>
      <stop offset="0.5" stop-color="#fbeec2"/>
      <stop offset="1" stop-color="#dcc285"/>
    </linearGradient>
    <!-- 背面の飾り用: 下ほど暗くなる金 -->
    <linearGradient id="m02-deepGold" x1="0" y1="0" x2="0" y2="1">
      <stop offset="0" stop-color="#fffbd0"/>
      <stop offset="0.45" stop-color="#ffd24e"/>
      <stop offset="0.72" stop-color="#a86a14"/>
      <stop offset="1" stop-color="#2a1406"/>
    </linearGradient>
    <linearGradient id="m02-gem" x1="0" y1="0" x2="0" y2="1">
      <stop offset="0" stop-color="#8ffaf4"/>
      <stop offset="0.5" stop-color="#3cdcd2"/>
      <stop offset="0.5" stop-color="#20b89e"/>
      <stop offset="1" stop-color="#0e7e6c"/>
    </linearGradient>
  </defs>
  <polygon points="47,5 62.4,21.4 47,37.8 31.6,21.4" fill="url(#m02-gold)" stroke="#4a2a10" stroke-width="0.7" stroke-linejoin="round"/>
  <polygon points="47,8.8 58.6,21.4 47,34 35.4,21.4" fill="url(#m02-gem)" stroke="#4a2a10" stroke-width="0.6" stroke-linejoin="round"/>
  <g fill="#3a2008" stroke="#3a2008" stroke-width="1.3" stroke-linejoin="round"><rect x="41.45" y="14.9" width="11.1" height="1.8"/><rect x="41.45" y="26.1" width="11.1" height="1.8"/><rect x="43.35" y="14.9" width="2.6" height="13"/><rect x="48.05" y="14.9" width="2.6" height="13"/></g>
  <g fill="url(#m02-cream)"><rect x="41.45" y="14.9" width="11.1" height="1.8"/><rect x="41.45" y="26.1" width="11.1" height="1.8"/><rect x="43.35" y="14.9" width="2.6" height="13"/><rect x="48.05" y="14.9" width="2.6" height="13"/></g>
  <polygon points="42.3,31.7 43.57,34.45 46.58,34.81 44.35,36.87 44.95,39.84 42.3,38.36 39.65,39.84 40.25,36.87 38.02,34.81 41.03,34.45" fill="#f8dc8c" stroke="#4a2a10" stroke-width="0.6" stroke-linejoin="round"/>
  <polygon points="51.7,31.7 52.97,34.45 55.98,34.81 53.75,36.87 54.35,39.84 51.7,38.36 49.05,39.84 49.65,36.87 47.42,34.81 50.43,34.45" fill="#f8dc8c" stroke="#4a2a10" stroke-width="0.6" stroke-linejoin="round"/>
</svg>
