<svg xmlns="http://www.w3.org/2000/svg" viewBox="0 0 94 46" width="94" height="46" role="img" aria-label="クラスエンブレム I">
  <defs>
    <linearGradient id="m01-gold" x1="0" y1="0" x2="0" y2="1">
      <stop offset="0" stop-color="#fffbe0"/>
      <stop offset="0.5" stop-color="#ffe066"/>
      <stop offset="0.5" stop-color="#f8bb2e"/>
      <stop offset="1" stop-color="#dd9a24"/>
    </linearGradient>
    <linearGradient id="m01-cream" x1="0" y1="0" x2="0" y2="1">
      <stop offset="0" stop-color="#fffdf0"/>
      <stop offset="0.5" stop-color="#fbeec2"/>
      <stop offset="1" stop-color="#dcc285"/>
    </linearGradient>
    <!-- 背面の飾り用: 下ほど暗くなる金 -->
    <linearGradient id="m01-deepGold" x1="0" y1="0" x2="0" y2="1">
      <stop offset="0" stop-color="#fffbd0"/>
      <stop offset="0.45" stop-color="#ffd24e"/>
      <stop offset="0.72" stop-color="#a86a14"/>
      <stop offset="1" stop-color="#2a1406"/>
    </linearGradient>
    <linearGradient id="m01-gem" x1="0" y1="0" x2="0" y2="1">
      <stop offset="0" stop-color="#5a96ff"/>
      <stop offset="0.5" stop-color="#2c64ec"/>
      <stop offset="0.5" stop-color="#1a4cd4"/>
      <stop offset="1" stop-color="#0b2f9c"/>
    </linearGradient>
  </defs>
  <rect x="33.6" y="9.4" width="26.8" height="26.8" rx="0.8" fill="url(#m01-gold)" stroke="#4a2a10" stroke-width="0.7"/>
  <rect x="36.4" y="12.2" width="21.2" height="21.2" fill="url(#m01-gem)" stroke="#4a2a10" stroke-width="0.6"/>
  <polygon points="52,12.2 57.6,12.2 57.6,17.8" fill="#ffffff" opacity="0.25"/>
  <g fill="#3a2008" stroke="#3a2008" stroke-width="1.3" stroke-linejoin="round"><rect x="43.8" y="15.3" width="6.4" height="1.8"/><rect x="43.8" y="28.5" width="6.4" height="1.8"/><rect x="45.7" y="15.3" width="2.6" height="15"/></g>
  <g fill="url(#m01-cream)"><rect x="43.8" y="15.3" width="6.4" height="1.8"/><rect x="43.8" y="28.5" width="6.4" height="1.8"/><rect x="45.7" y="15.3" width="2.6" height="15"/></g>
  <polygon points="47,31.2 48.24,33.89 51.18,34.24 49.01,36.25 49.59,39.16 47,37.71 44.41,39.16 44.99,36.25 42.82,34.24 45.76,33.89" fill="#f8dc8c" stroke="#4a2a10" stroke-width="0.6" stroke-linejoin="round"/>
</svg>
